<?xml version="1.0" encoding="utf-8"?>
<!-- Generator: Adobe Illustrator 25.2.1, SVG Export Plug-In . SVG Version: 6.00 Build 0)  -->
<svg version="1.1" id="Layer_1" xmlns="http://www.w3.org/2000/svg" xmlns:xlink="http://www.w3.org/1999/xlink" x="0px" y="0px"
	 viewBox="0 0 77.2 73.9" style="enable-background:new 0 0 77.2 73.9;" xml:space="preserve">
<style type="text/css">
	.st0{fill:#E28807;}
</style>
<path class="st0" d="M43.5,3.1l7.7,15.5c0.8,1.6,2.3,2.7,4.1,3l17.2,2.5c4.5,0.7,6.3,6.2,3,9.4L63.1,45.6c-1.3,1.3-1.9,3.1-1.6,4.9
	l2.9,17.1c0.8,4.5-3.9,7.9-8,5.8l-15.3-8.1c-1.6-0.8-3.5-0.8-5.1,0l-15.3,8.1c-4,2.1-8.7-1.3-8-5.8l2.9-17.1
	c0.3-1.8-0.3-3.6-1.6-4.9L1.7,33.5c-3.3-3.2-1.5-8.7,3-9.4l17.2-2.5c1.8-0.3,3.3-1.4,4.1-3l7.7-15.5C35.7-1,41.5-1,43.5,3.1z"/>
</svg>
